<?xml version="1.0" encoding="UTF-8" standalone="no"?>
<!-- Generator: Adobe Illustrator 24.1.3, SVG Export Plug-In . SVG Version: 6.00 Build 0)  -->

<svg
   version="1.1"
   id="Layer_1"
   x="0px"
   y="0px"
   viewBox="0 0 748.5 300.5"
   style="enable-background:new 0 0 748.5 300.5;"
   xml:space="preserve"
   xmlns:xlink="http://www.w3.org/1999/xlink"
   xmlns="http://www.w3.org/2000/svg"
   xmlns:svg="http://www.w3.org/2000/svg"><defs
   id="defs485" />
<style
   type="text/css"
   id="style281">
	.st0{fill:#99CCFF;stroke:#000000;stroke-miterlimit:10;}
	.st1{font-family:'Verdana-Bold';}
	.st2{font-size:22px;}
	.st3{fill-rule:evenodd;clip-rule:evenodd;fill:#BF005F;stroke:#D4145A;stroke-width:5;stroke-miterlimit:10;}
	.st4{fill-rule:evenodd;clip-rule:evenodd;fill:#009F79;stroke:#007F6B;stroke-width:5;stroke-miterlimit:10;}
	.st5{font-size:14px;}
	.st6{fill:#007F68;}
	.st7{fill:#CC9900;stroke:#CC9900;stroke-miterlimit:10;}
	.st8{clip-path:url(#SVGID_2_);}
	.st9{fill:#FFFFFF;fill-opacity:0;}
	.st10{font-size:18px;}
	.st11{clip-path:url(#SVGID_4_);}
	.st12{fill:none;}
	.st13{clip-path:url(#SVGID_6_);}
	.st14{clip-path:url(#SVGID_8_);}
	.st15{clip-path:url(#SVGID_10_);}
	.st16{clip-path:url(#SVGID_12_);}
	.st17{clip-path:url(#SVGID_14_);}
	.st18{clip-path:url(#SVGID_16_);}
	.st19{clip-path:url(#SVGID_18_);}
	.st20{clip-path:url(#SVGID_20_);}
	.st21{fill:none;stroke:#000000;stroke-width:0.88;stroke-miterlimit:10;}
	.st22{clip-path:url(#SVGID_22_);}
	.st23{clip-path:url(#SVGID_24_);}
	.st24{clip-path:url(#SVGID_26_);}
	.st25{clip-path:url(#SVGID_28_);}
</style>
<g
   id="g480">
	
	
	
	
	
		
	
	
	
	
	
	
	
	
	
	
	
	
		
	
	
	
	
	
	
	
	
	
	
	<g
   id="g1203"><path
     class="st0"
     d="M264,106.5h202c6.6,0,12,5.4,12,12v63c0,6.6-5.4,12-12,12H264c-6.6,0-12-5.4-12-12v-63   C252,111.9,257.4,106.5,264,106.5z"
     id="path283" /><text
     transform="matrix(1 0 0 1 262.92 158.53)"
     class="st1 st2"
     id="text285">Phospho-Analyst</text><path
     id="svg_1"
     class="st3"
     d="M65.9,137.5H20.1c-4-0.1-7.2-3.5-7.1-7.5c0,0,0,0,0,0V59c-0.1-4,3-7.4,7.1-7.5h33.5   c0.5,0,1.1,0.3,1.4,0.7l17.3,18.4c0.4,0.4,0.7,0.9,0.7,1.5l0,0l0,0l0,0V130C73.1,134,70,137.4,65.9,137.5   C66,137.5,66,137.5,65.9,137.5z M55,57.1v12.4h11.7L55,57.1z M69,73.5H52.8c-1,0-1.8-0.9-1.8-1.9V54.5H19.5c-2,0.1-3.6,1.8-3.5,3.8   v71.4c-0.1,2,1.5,3.7,3.5,3.8h46c2-0.1,3.6-1.7,3.5-3.8L69,73.5z M59.8,122.5h-34c-1.1,0-2-0.9-2-2s0.9-2,2-2h34c1.1,0,2,0.9,2,2   S60.9,122.5,59.8,122.5z M59.8,107.5h-34c-1.1,0-2-0.9-2-2s0.9-2,2-2h34c1.1,0,2,0.9,2,2S60.9,107.5,59.8,107.5z M59.8,92.5h-34   c-1.1,0-2-0.9-2-2s0.9-2,2-2h34c1.1,0,2,0.9,2,2S60.9,92.5,59.8,92.5z" /><path
     id="svg_1-2"
     class="st4"
     d="M167.9,137.5h-45.9c-4-0.1-7.2-3.5-7.1-7.5c0,0,0,0,0,0V59c-0.1-4,3-7.4,7.1-7.5h33.5   c0.5,0,1.1,0.3,1.4,0.7l17.3,18.4c0.4,0.4,0.7,0.9,0.7,1.5l0,0l0,0l0,0V130C175.1,134,172,137.4,167.9,137.5   C168,137.5,168,137.5,167.9,137.5z M157,57.1v12.4h11.7L157,57.1z M171,73.5h-16.2c-1,0-1.8-0.9-1.8-1.9V54.5h-31.5   c-2,0.1-3.6,1.8-3.5,3.8v71.4c-0.1,2,1.5,3.7,3.5,3.8h46c2-0.1,3.6-1.7,3.5-3.8L171,73.5z M161.8,122.5h-34c-1.1,0-2-0.9-2-2   s0.9-2,2-2h34c1.1,0,2,0.9,2,2S162.9,122.5,161.8,122.5z M161.8,107.5h-34c-1.1,0-2-0.9-2-2s0.9-2,2-2h34c1.1,0,2,0.9,2,2   S162.9,107.5,161.8,107.5z M161.8,92.5h-34c-1.1,0-2-0.9-2-2s0.9-2,2-2h34c1.1,0,2,0.9,2,2S162.9,92.5,161.8,92.5z" /><image
     style="overflow:visible;enable-background:new    ;"
     width="900"
     height="900"
     id="Layer_0"
     xlink:href="36628CA2609498DD.png"
     transform="matrix(7.000000e-02 0 0 7.000000e-02 11.51 152)">
	</image><text
     transform="matrix(0.8914 0 0 1 12.0621 244.1257)"
     class="st1 st5"
     id="text290">Phospho</text><text
     transform="matrix(0.8914 0 0 1 1.3019 264.3171)"
     class="st1 st5"
     id="text292">(STY) Siites</text><text
     transform="matrix(1 0 0 1 102.73 246.0017)"
     class="st1 st5"
     id="text294">Experiment </text><text
     transform="matrix(1 0 0 1 126.29 264.0017)"
     class="st1 st5"
     id="text296">Design</text><path
     class="st6"
     d="M121.3,160h2.2v28.1c0,5.2,3.4,9.4,7.5,9.4s7.5-4.2,7.5-9.4V160h2.2c0.4,0,0.8-0.5,0.8-1v-6c0-0.5-0.3-1-0.8-1   h-19.5c-0.4,0-0.8,0.5-0.8,1v6C120.5,159.5,120.8,160,121.3,160z M128.5,160h6v11h-6V160z M173,204h-57c-0.8,0-1.5,0.9-1.5,2v4   c0,1.1,0.7,2,1.5,2h57c0.8,0,1.5-0.9,1.5-2v-4C174.5,204.9,173.8,204,173,204z M148.3,160h2.2v28.1c0,5.2,3.4,9.4,7.5,9.4   s7.5-4.2,7.5-9.4V160h2.2c0.4,0,0.8-0.5,0.8-1v-6c0-0.5-0.3-1-0.8-1h-19.5c-0.4,0-0.8,0.5-0.8,1v6C147.5,159.5,147.8,160,148.3,160   z M155.5,160h6v11h-6V160z"
     id="path298" /><path
     class="st7"
     d="M532.3,76.5c1.3-1.3,1.4-3.5,0-4.9c0,0,0,0,0,0l-20.6-20.4c-1.8-1.8-4.7-0.3-4.7,2.4v10.7   c-18.8,0.2-33.8,4.6-33.8,25c0,8.2,4.6,16.4,9.8,20.6c1.6,1.3,3.9-0.3,3.3-2.5C481,88.2,488.8,83,507,82.7v11.8   c0,2.8,2.8,4.2,4.7,2.4L532.3,76.5z"
     id="path300" /><path
     class="st7"
     d="M532.3,220c1.3,1.3,1.4,3.5,0,4.8c0,0,0,0,0,0l-20.6,20.4c-1.8,1.8-4.7,0.3-4.7-2.4v-10.7   c-18.8-0.2-33.8-4.6-33.8-24.9c0-8.2,4.6-16.4,9.8-20.6c1.6-1.3,3.9,0.3,3.3,2.5c-5.3,19.4,2.5,24.6,20.7,24.9v-11.8   c0-2.8,2.8-4.2,4.7-2.4L532.3,220z"
     id="path302" /><path
     class="st7"
     d="M230,146.5h-39.4c-0.9,0.1-1.6,0.9-1.6,1.8v8.4c-0.1,0.9,0.6,1.7,1.6,1.8H230v6.9c0,3.2,3.4,4.8,5.4,2.5   l11.4-13c1.2-1.4,1.2-3.4,0-4.8l-11.4-13c-2-2.3-5.4-0.7-5.4,2.5V146.5z"
     id="path304" /><g
     id="g316">
		<defs
   id="defs307">
			<rect
   id="SVGID_1_"
   x="539.5"
   y="6"
   width="81"
   height="89" />
		</defs>
		<clipPath
   id="SVGID_2_">
			<use
   xlink:href="#SVGID_1_"
   style="overflow:visible;"
   id="use309" />
		</clipPath>
		<g
   class="st8"
   clip-path="url(#SVGID_2_)"
   id="g314">
			<rect
   x="539.5"
   y="6"
   class="st9"
   width="81"
   height="89"
   id="rect312" />
		</g>
	</g><text
     transform="matrix(1 0 0 1 544.16 114.74)"
     class="st1 st10"
     id="text318">Graphs</text><g
     id="g330">
		<defs
   id="defs321">
			<rect
   id="SVGID_3_"
   x="663.5"
   y="5"
   width="85"
   height="100" />
		</defs>
		<clipPath
   id="SVGID_4_">
			<use
   xlink:href="#SVGID_3_"
   style="overflow:visible;"
   id="use323" />
		</clipPath>
		<g
   class="st11"
   clip-path="url(#SVGID_4_)"
   id="g328">
			<rect
   x="663.5"
   y="5"
   class="st9"
   width="85"
   height="100"
   id="rect326" />
		</g>
	</g><image
     style="overflow:visible;enable-background:new    ;"
     width="208"
     height="249"
     xlink:href="36628CA2609498DE.png"
     transform="matrix(0.3234 0 0 0.3332 651.0342 9)"
     id="image332">
	</image><rect
     x="650.5"
     y="9"
     class="st12"
     width="69"
     height="83"
     id="rect334" /><text
     transform="matrix(1 0 0 1 640.4 114.74)"
     class="st1 st10"
     id="text336">Summary</text><g
     id="g348">
		<defs
   id="defs339">
			<rect
   id="SVGID_5_"
   x="543.5"
   y="197"
   width="71"
   height="71" />
		</defs>
		<clipPath
   id="SVGID_6_">
			<use
   xlink:href="#SVGID_5_"
   style="overflow:visible;"
   id="use341" />
		</clipPath>
		<g
   class="st13"
   clip-path="url(#SVGID_6_)"
   id="g346">
			<rect
   x="543.5"
   y="197"
   class="st9"
   width="71"
   height="71"
   id="rect344" />
		</g>
	</g><g
     id="g380">
		<defs
   id="defs351">
			<rect
   id="SVGID_7_"
   x="543.5"
   y="197"
   width="71"
   height="71" />
		</defs>
		<clipPath
   id="SVGID_8_">
			<use
   xlink:href="#SVGID_7_"
   style="overflow:visible;"
   id="use353" />
		</clipPath>
		<g
   class="st14"
   clip-path="url(#SVGID_8_)"
   id="g378">
			<g
   id="g376">
				<defs
   id="defs357">
					<rect
   id="SVGID_9_"
   x="543.5"
   y="197"
   width="71"
   height="71" />
				</defs>
				<clipPath
   id="SVGID_10_">
					<use
   xlink:href="#SVGID_9_"
   style="overflow:visible;"
   id="use359" />
				</clipPath>
				<g
   class="st15"
   clip-path="url(#SVGID_10_)"
   id="g374">
					<g
   id="g372">
						<defs
   id="defs363">
							<rect
   id="SVGID_11_"
   x="543.5"
   y="197"
   width="71"
   height="71" />
						</defs>
						<clipPath
   id="SVGID_12_">
							<use
   xlink:href="#SVGID_11_"
   style="overflow:visible;"
   id="use365" />
						</clipPath>
						<g
   class="st16"
   clip-path="url(#SVGID_12_)"
   id="g370">
							
								<image
   style="overflow:visible;enable-background:new    ;"
   width="226"
   height="225"
   xlink:href="36628CA2609498DC.png"
   transform="matrix(0.3186 0 0 0.3186 543.51 197.1593)"
   id="image368">
							</image>
						</g>
					</g>
				</g>
			</g>
		</g>
	</g><text
     transform="matrix(1 0 0 1 545.68 295)"
     class="st1 st10"
     id="text382">Tables</text><g
     id="g394">
		<defs
   id="defs385">
			<rect
   id="SVGID_13_"
   x="651.5"
   y="196"
   width="71"
   height="71" />
		</defs>
		<clipPath
   id="SVGID_14_">
			<use
   xlink:href="#SVGID_13_"
   style="overflow:visible;"
   id="use387" />
		</clipPath>
		<g
   class="st17"
   clip-path="url(#SVGID_14_)"
   id="g392">
			<rect
   x="651.5"
   y="196"
   class="st9"
   width="71"
   height="71"
   id="rect390" />
		</g>
	</g><g
     id="g430">
		<defs
   id="defs397">
			<rect
   id="SVGID_15_"
   x="652"
   y="196.5"
   width="71"
   height="71" />
		</defs>
		<clipPath
   id="SVGID_16_">
			<use
   xlink:href="#SVGID_15_"
   style="overflow:visible;"
   id="use399" />
		</clipPath>
		<g
   class="st18"
   clip-path="url(#SVGID_16_)"
   id="g428">
			<g
   id="g424">
				<defs
   id="defs403">
					<rect
   id="SVGID_17_"
   x="652"
   y="196.5"
   width="71"
   height="71" />
				</defs>
				<clipPath
   id="SVGID_18_">
					<use
   xlink:href="#SVGID_17_"
   style="overflow:visible;"
   id="use405" />
				</clipPath>
				<g
   class="st19"
   clip-path="url(#SVGID_18_)"
   id="g422">
					<g
   id="g418">
						<defs
   id="defs409">
							<rect
   id="SVGID_19_"
   x="652"
   y="196.5"
   width="71"
   height="71" />
						</defs>
						<clipPath
   id="SVGID_20_">
							<use
   xlink:href="#SVGID_19_"
   style="overflow:visible;"
   id="use411" />
						</clipPath>
						<g
   class="st20"
   clip-path="url(#SVGID_20_)"
   id="g416">
							
								<image
   style="overflow:visible;enable-background:new    ;"
   width="300"
   height="300"
   xlink:href="36628CA2609498D4.png"
   transform="matrix(0.24 0 0 0.24 651.51 196)"
   id="image414">
							</image>
						</g>
					</g>
					<rect
   x="652"
   y="196.5"
   class="st21"
   width="71"
   height="71"
   id="rect420" />
				</g>
			</g>
			<rect
   x="652"
   y="196.5"
   class="st21"
   width="71"
   height="71"
   id="rect426" />
		</g>
	</g><rect
     x="652"
     y="196.5"
     class="st21"
     width="71"
     height="71"
     id="rect432" /><text
     transform="matrix(1 0 0 1 630.33 295)"
     class="st1 st10"
     id="text434">Interactive</text><g
     id="g446">
		<defs
   id="defs437">
			<rect
   id="SVGID_21_"
   x="542.5"
   y="0"
   width="89"
   height="88" />
		</defs>
		<clipPath
   id="SVGID_22_">
			<use
   xlink:href="#SVGID_21_"
   style="overflow:visible;"
   id="use439" />
		</clipPath>
		<g
   class="st22"
   clip-path="url(#SVGID_22_)"
   id="g444">
			<rect
   x="542.5"
   y="0"
   class="st9"
   width="89"
   height="88"
   id="rect442" />
		</g>
	</g><g
     id="g478">
		<defs
   id="defs449">
			<rect
   id="SVGID_23_"
   x="542.5"
   y="9.5"
   width="72"
   height="78.5" />
		</defs>
		<clipPath
   id="SVGID_24_">
			<use
   xlink:href="#SVGID_23_"
   style="overflow:visible;"
   id="use451" />
		</clipPath>
		<g
   class="st23"
   clip-path="url(#SVGID_24_)"
   id="g476"
   transform="matrix(1.2147325,0,0,0.98138494,-120.00864,0.17684307)">
			<g
   id="g474">
				<defs
   id="defs455">
					<rect
   id="SVGID_25_"
   x="542.5"
   y="9.5"
   width="72"
   height="78.5" />
				</defs>
				<clipPath
   id="SVGID_26_">
					<use
   xlink:href="#SVGID_25_"
   style="overflow:visible"
   id="use457"
   x="0"
   y="0"
   width="100%"
   height="100%" />
				</clipPath>
				<g
   class="st24"
   clip-path="url(#SVGID_26_)"
   id="g472">
					<g
   id="g470">
						<defs
   id="defs461">
							<rect
   id="SVGID_27_"
   x="542.5"
   y="9.5"
   width="72"
   height="78.5" />
						</defs>
						<clipPath
   id="SVGID_28_">
							<use
   xlink:href="#SVGID_27_"
   style="overflow:visible"
   id="use463"
   x="0"
   y="0"
   width="100%"
   height="100%" />
						</clipPath>
						<g
   class="st25"
   clip-path="url(#SVGID_28_)"
   id="g468">
							
								<image
   style="overflow:visible;enable-background:new"
   width="501"
   height="546"
   xlink:href="36628CA2609498D5.png"
   transform="matrix(0.1282,0,0,0.1465,545.3947,9.5)"
   id="image466">
							</image>
						</g>
					</g>
				</g>
			</g>
		</g>
	</g></g>
</g>
</svg>
